ModelForces
version=1
nRows=4
nColumns=155
inDegrees=no

This file contains the forces exerted on a model during a simulation.

A force is a generalized force, meaning that it can be either a force (N) or a torque (Nm).

Units are S.I. units (second, meters, Newtons, ...)
Angles are in degrees.

endheader
time	glut_med1_r	glut_med2_r	glut_med3_r	glut_min1_r	glut_min2_r	glut_min3_r	semimem_r	semiten_r	bifemlh_r	bifemsh_r	sar_r	add_long_r	add_brev_r	add_mag1_r	add_mag2_r	add_mag3_r	tfl_r	pect_r	grac_r	glut_max1_r	glut_max2_r	glut_max3_r	iliacus_r	psoas_r	quad_fem_r	gem_r	peri_r	rect_fem_r	vas_med_r	vas_int_r	vas_lat_r	med_gas_r	lat_gas_r	soleus_r	tib_post_r	flex_dig_r	flex_hal_r	tib_ant_r	per_brev_r	per_long_r	per_tert_r	ext_dig_r	ext_hal_r	glut_med1_l	glut_med2_l	glut_med3_l	glut_min1_l	glut_min2_l	glut_min3_l	semimem_l	semiten_l	bifemlh_l	bifemsh_l	sar_l	add_long_l	add_brev_l	add_mag1_l	add_mag2_l	add_mag3_l	tfl_l	pect_l	grac_l	glut_max1_l	glut_max2_l	glut_max3_l	iliacus_l	psoas_l	quad_fem_l	gem_l	peri_l	rect_fem_l	vas_med_l	vas_int_l	vas_lat_l	med_gas_l	lat_gas_l	soleus_l	tib_post_l	flex_dig_l	flex_hal_l	tib_ant_l	per_brev_l	per_long_l	per_tert_l	ext_dig_l	ext_hal_l	ercspn_r	ercspn_l	intobl_r	intobl_l	extobl_r	extobl_l	femur_lat_meniscii_r.femur_lat_r.force.X	femur_lat_meniscii_r.femur_lat_r.force.Y	femur_lat_meniscii_r.femur_lat_r.force.Z	femur_lat_meniscii_r.femur_lat_r.torque.X	femur_lat_meniscii_r.femur_lat_r.torque.Y	femur_lat_meniscii_r.femur_lat_r.torque.Z	femur_lat_meniscii_r.meniscus_lat_r.force.X	femur_lat_meniscii_r.meniscus_lat_r.force.Y	femur_lat_meniscii_r.meniscus_lat_r.force.Z	femur_lat_meniscii_r.meniscus_lat_r.torque.X	femur_lat_meniscii_r.meniscus_lat_r.torque.Y	femur_lat_meniscii_r.meniscus_lat_r.torque.Z	femur_med_meniscii_r.femur_med_r.force.X	femur_med_meniscii_r.femur_med_r.force.Y	femur_med_meniscii_r.femur_med_r.force.Z	femur_med_meniscii_r.femur_med_r.torque.X	femur_med_meniscii_r.femur_med_r.torque.Y	femur_med_meniscii_r.femur_med_r.torque.Z	femur_med_meniscii_r.meniscus_med_r.force.X	femur_med_meniscii_r.meniscus_med_r.force.Y	femur_med_meniscii_r.meniscus_med_r.force.Z	femur_med_meniscii_r.meniscus_med_r.torque.X	femur_med_meniscii_r.meniscus_med_r.torque.Y	femur_med_meniscii_r.meniscus_med_r.torque.Z	femur_med_tibia_r.tibia_upper_r.force.X	femur_med_tibia_r.tibia_upper_r.force.Y	femur_med_tibia_r.tibia_upper_r.force.Z	femur_med_tibia_r.tibia_upper_r.torque.X	femur_med_tibia_r.tibia_upper_r.torque.Y	femur_med_tibia_r.tibia_upper_r.torque.Z	femur_med_tibia_r.femur_med_r.force.X	femur_med_tibia_r.femur_med_r.force.Y	femur_med_tibia_r.femur_med_r.force.Z	femur_med_tibia_r.femur_med_r.torque.X	femur_med_tibia_r.femur_med_r.torque.Y	femur_med_tibia_r.femur_med_r.torque.Z	femur_lat_tibia_r.tibia_upper_r.force.X	femur_lat_tibia_r.tibia_upper_r.force.Y	femur_lat_tibia_r.tibia_upper_r.force.Z	femur_lat_tibia_r.tibia_upper_r.torque.X	femur_lat_tibia_r.tibia_upper_r.torque.Y	femur_lat_tibia_r.tibia_upper_r.torque.Z	femur_lat_tibia_r.femur_lat_r.force.X	femur_lat_tibia_r.femur_lat_r.force.Y	femur_lat_tibia_r.femur_lat_r.force.Z	femur_lat_tibia_r.femur_lat_r.torque.X	femur_lat_tibia_r.femur_lat_r.torque.Y	femur_lat_tibia_r.femur_lat_r.torque.Z	aACL_R	pACL_R	aPCL_R	pPCL_R	aMCL_R	mMCL_R	pMCL_R	aLCL_R	mLCL_R	pLCL_R	aPCL_L	pPCL_L	aMCL_L	aLCL_L
      0.10975321	      9.80910956	     11.21741539	     12.09781413	      5.12031923	      5.87092931	      6.52248236	    114.69578884	    168.12111344	    225.20067307	    361.42013905	    126.23955867	     11.20197586	      7.92641426	      0.00000000	      4.81922068	      8.42187245	      5.04801655	      3.49464466	    100.32529735	      7.25187047	     11.04341603	      8.33314694	     32.88129465	     24.61047530	      7.01247341	      4.53629663	      4.39894879	     38.52308217	      0.00000000	      0.00000000	      0.00000000	     27.00632839	      0.80142315	      0.00000000	      0.00000000	      1.54239775	      0.00000000	     29.96871287	      3.43922293	      4.45426791	      9.16560571	     17.38713657	      5.37520439	      9.80910956	     11.21741539	     12.09781413	      5.12031923	      5.87092931	      6.52248236	      0.00000000	      8.45225068	     14.89516202	     14.10410384	      2.91771143	     11.20197586	      7.92641426	      0.00000000	      4.81922068	      8.42187245	      6.81172576	      3.49464466	      3.02671087	      7.25187047	     11.04341603	      8.33314694	     32.88129465	     24.61047530	      7.01247341	      4.53629663	      4.39894879	     23.27086517	      0.00000000	      0.00000000	      0.00000000	     16.81123104	      8.63078969	     58.13889591	     57.57520228	      7.72794114	      7.11091801	     16.77349818	      9.40494235	     21.73285986	      3.79920127	     11.74072891	      3.96381727	     48.22578415	     48.22578415	     18.30303355	     18.30303355	     35.25046220	     35.25046220	     56.16741073	    280.99286759	     40.85230435	    -23.58044526	      1.45242030	     21.98624922	    -56.16741073	   -280.99286759	    -40.85230435	      8.55457675	     -1.98786685	      2.35560385	    -29.52613724	     63.61832472	      9.22629943	     -2.27519698	      0.69885259	    -12.08812770	     29.52613724	    -63.61832472	     -9.22629943	     -1.11799307	     -0.73097674	      1.45069808	   -101.27785417	   -503.49265688	    112.28869191	    -11.88002931	      2.49931190	      0.50927588	    101.27785417	    503.49265688	   -112.28869191	     55.86499965	     -1.56541820	     43.35010076	    -33.56900549	   -120.76631961	    -30.29560709	      4.09686614	     -1.18536613	      0.18578774	     33.56900549	    120.76631961	     30.29560709	    -15.42420405	      0.80529234	     13.88052821	      7.18114878	    -12.94424138	     26.81018040	     61.12476958	      0.00000000	      0.00000000	    -39.24791030	      0.00000000	      0.00000000	      0.00000000	      0.00000000	      0.00000000	      0.00000001	      0.00000000
      0.11070177	     10.35718048	     11.14740674	     12.02239341	      5.08944295	      5.83689561	      6.48796046	    114.04755552	    167.61700026	    222.26723219	    357.57085330	    126.08309240	     11.13111611	      7.87904588	      0.00000000	      4.79912909	      8.36730602	      5.03836305	      3.81175706	    100.06253969	      7.20667413	     10.97378608	      8.27994724	     32.75004536	     24.46101618	      6.98232700	      4.51475899	      4.54963789	     38.17170154	      0.00000000	      0.00000000	      0.00000000	     29.07954354	      0.76431202	      0.00000000	      0.00000000	      1.19563742	      0.00000000	     29.40476530	      3.77646949	      4.64070874	      7.07049655	     17.54843977	      5.34804391	     10.35718048	     11.14740674	     12.02239341	      5.08944295	      5.83689561	      6.48796046	      0.00000000	      8.39675977	     14.88033730	     14.01720051	      2.90019634	     11.13111611	      7.87904588	      0.00000000	      4.79912909	      8.36730602	      6.77946877	      3.81175706	      3.00823912	      7.20667413	     10.97378608	      8.27994724	     32.75004536	     24.46101618	      6.98232700	      4.51475899	      4.54963789	     23.13434950	      0.00000000	      0.00000000	      0.00000000	     17.11447319	      8.74252226	     58.14961560	     57.46877402	      7.63535479	      7.01215927	     16.73819021	      9.36387598	     21.68766346	      3.77637658	     11.81735109	      3.98270129	     47.93436938	     47.93436938	     18.18492836	     18.18492836	     35.14171433	     35.14171433	     61.94151136	    294.49429307	     38.80178525	    -23.04093676	      1.57430019	     24.30461589	    -61.94151136	   -294.49429307	    -38.80178525	      8.81688970	     -2.10485468	      2.42879947	    -28.48174535	     66.42607309	      9.73993938	     -2.41094821	      0.66944559	    -11.64335136	     28.48174535	    -66.42607309	     -9.73993938	     -1.17505219	     -0.71152943	      1.44410048	   -114.14973926	   -527.29177876	    117.89474165	    -12.46478004	      2.76726354	      0.33515340	    114.14973926	    527.29177876	   -117.89474165	     58.62506700	     -1.78077605	     48.77095075	    -34.16719849	   -120.17514744	    -29.66204701	      4.04996347	     -1.19778184	      0.18844530	     34.16719849	    120.17514744	     29.66204701	    -15.14067974	      0.81947582	     14.11945754	      6.38588819	    -13.49014969	     24.92935441	     57.86767768	      0.00000000	      0.00000000	      0.00000000	      0.00000000	      0.00000000	      0.00000000	      0.00000000	      0.00000000	      0.00000001	      0.00000000
      0.11165033	     10.82142304	     11.07827738	     11.94782187	      5.05896462	      5.80330523	      6.45327202	    113.51197227	    167.33028631	    219.47713090	    355.10122975	    126.17760335	     11.06118069	      7.83228598	      0.00000000	      4.77822377	      8.31332695	      5.02785732	      3.97811338	     99.99495861	      7.16200367	     10.90505603	      8.22744017	     32.62054160	     24.31353302	      6.95024673	      4.49349217	      4.69029798	     38.17307256	      0.00000000	      0.00000000	      0.00000000	     31.30413858	      0.74212503	      0.00000000	      0.00000000	      0.86875451	      0.00000000	     29.96083532	      4.12666516	      4.83782866	      8.82900682	     17.68450946	      5.32083656	     10.82142304	     11.07827738	     11.94782187	      5.05896462	      5.80330523	      6.45327202	      0.00000000	      8.34199224	     14.86315038	     13.93142553	      2.88290662	     11.06118069	      7.83228598	      0.00000000	      4.77822377	      8.31332695	      6.74750501	      3.97811338	      2.99000637	      7.16200367	     10.90505603	      8.22744017	     32.62054160	     24.31353302	      6.95024673	      4.49349217	      4.69029798	     22.99838269	      0.00000000	      0.00000000	      0.00000000	     17.40191187	      8.84825758	     58.14832956	     57.36082148	      7.54548433	      6.91641751	     16.70017186	      9.32234928	     21.64116017	      3.75383945	     11.88254256	      3.99600306	     47.64671293	     47.64671293	     18.06836143	     18.06836143	     35.03442415	     35.03442415	     63.67540268	    286.49447630	     37.54304780	    -22.31243319	      1.61985062	     25.04001981	    -63.67540268	   -286.49447630	    -37.54304780	      8.54318131	     -2.14497726	      2.32079930	    -26.45588062	     64.46605727	     10.69336935	     -2.85492892	      0.61560135	    -10.81781545	     26.45588062	    -64.46605727	    -10.69336935	     -1.10184499	     -0.67439521	      1.38302214	   -126.00237403	   -546.63315355	    121.36203399	    -12.89753182	      3.00867531	      0.18916804	    126.00237403	    546.63315355	   -121.36203399	     60.40627186	     -1.98667805	     53.73932508	    -35.24919568	   -118.22323073	    -29.66972840	      3.99524406	     -1.22970933	      0.15423241	     35.24919568	    118.22323073	     29.66972840	    -15.09712751	      0.84539278	     14.56675190	      7.23572845	    -12.45921584	     25.94211061	     60.95133098	      0.00000000	      0.00000000	      0.00000000	      0.00000000	      0.00000000	      0.00000000	      0.00000000	      0.00000000	      0.00000001	      0.00000000
      0.11268181	     11.24637438	     11.00409444	     11.86770156	      5.02626745	      5.76727468	      6.41541921	    113.11039126	    167.30615195	    216.72610794	    353.62465328	    126.45835653	     10.98616634	      7.78211967	      0.00000000	      4.75470642	      8.25529704	      5.02525832	      4.06686795	    100.10073573	      7.11402699	     10.83132682	      8.17111883	     32.48167002	     24.15536859	      6.91368431	      4.47067093	      4.83271303	     37.85614519	      0.00000000	      0.00000000	      0.00000000	     33.95107955	      0.75441336	      0.00000000	      0.00000000	      0.54000380	      0.00000000	     27.40694855	      4.51704569	      5.05953115	      9.52689728	     17.85132548	      5.29221729	     11.24637438	     11.00409444	     11.86770156	      5.02626745	      5.76727468	      6.41541921	      0.00000000	      8.28324683	     14.84185594	     13.83941535	      2.86435778	     10.98616634	      7.78211967	      0.00000000	      4.75470642	      8.25529704	      6.71308382	      4.06686795	      2.97044731	      7.11402699	     10.83132682	      8.17111883	     32.48167002	     24.15536859	      6.91368431	      4.47067093	      4.83271303	     22.85122258	      0.00000000	      0.00000000	      0.00000000	     17.69742545	      8.95673300	     58.13888561	     57.24179937	      7.45089852	      6.81582802	     16.65590505	      9.27672005	     21.58915224	      3.72965548	     11.94013509	      4.00432985	     47.33811756	     47.33811756	     17.94332675	     17.94332675	     34.91938563	     34.91938563	     59.54379468	    279.52895503	     37.94770953	    -22.31544177	      1.50367924	     23.30213940	    -59.54379468	   -279.52895503	    -37.94770953	      8.36670755	     -2.02945916	      2.45781534	    -23.90650472	     63.13810907	     11.65865222	     -3.28726017	      0.55145513	     -9.76425860	     23.90650472	    -63.13810907	    -11.65865222	     -1.04368388	     -0.62859009	      1.30122388	   -134.75499538	   -551.45794628	    122.94458996	    -13.03880751	      3.19197394	      0.06416329	    134.75499538	    551.45794628	   -122.94458996	     61.14467577	     -2.14386393	     57.36410300	    -33.69472010	   -111.24740849	    -28.12708637	      3.75936060	     -1.17902731	      0.16046350	     33.69472010	    111.24740849	     28.12708637	    -14.29013432	      0.81019486	     13.91362587	      7.52925062	    -11.90899338	     28.02380576	     65.74312574	      0.00000000	      0.00000000	      0.00000000	      0.00000000	      0.00000000	      0.00000000	      0.00000000	      0.00000000	      0.00000001	      0.00000000
